<mxfile host="app.diagrams.net" agent="Mozilla/5.0 (Windows NT 10.0; Win64; x64) AppleWebKit/537.36 (KHTML, like Gecko) Chrome/138.0.0.0 Safari/537.36" version="28.0.7">
  <diagram name="第 1 页" id="oku9RY6pX9qEVXpH2Vt1">
    <mxGraphModel dx="1639" dy="898" grid="1" gridSize="10" guides="1" tooltips="1" connect="1" arrows="1" fold="1" page="1" pageScale="1" pageWidth="827" pageHeight="1169" math="0" shadow="0">
      <root>
        <mxCell id="0" />
        <mxCell id="1" parent="0" />
        <mxCell id="AuWu_W4zu13WxI6EuseF-9" style="edgeStyle=orthogonalEdgeStyle;rounded=0;orthogonalLoop=1;jettySize=auto;html=1;exitX=1;exitY=0.5;exitDx=0;exitDy=0;entryX=0;entryY=0.5;entryDx=0;entryDy=0;" edge="1" parent="1" source="AuWu_W4zu13WxI6EuseF-2" target="AuWu_W4zu13WxI6EuseF-4">
          <mxGeometry relative="1" as="geometry" />
        </mxCell>
        <mxCell id="AuWu_W4zu13WxI6EuseF-12" style="edgeStyle=orthogonalEdgeStyle;rounded=0;orthogonalLoop=1;jettySize=auto;html=1;entryX=0;entryY=0.5;entryDx=0;entryDy=0;" edge="1" parent="1" source="AuWu_W4zu13WxI6EuseF-2" target="AuWu_W4zu13WxI6EuseF-10">
          <mxGeometry relative="1" as="geometry">
            <mxPoint x="810" y="650" as="targetPoint" />
            <Array as="points">
              <mxPoint x="760" y="650" />
              <mxPoint x="760" y="651" />
              <mxPoint x="840" y="651" />
            </Array>
          </mxGeometry>
        </mxCell>
        <mxCell id="AuWu_W4zu13WxI6EuseF-2" value="&lt;b&gt;main&lt;/b&gt;" style="whiteSpace=wrap;html=1;fontSize=16;" vertex="1" parent="1">
          <mxGeometry x="590" y="620" width="120" height="60" as="geometry" />
        </mxCell>
        <mxCell id="AuWu_W4zu13WxI6EuseF-3" value="&lt;b&gt;slave board&lt;/b&gt;" style="text;html=1;align=center;verticalAlign=middle;resizable=0;points=[];autosize=1;strokeColor=none;fillColor=none;fontSize=22;" vertex="1" parent="1">
          <mxGeometry x="770" y="110" width="150" height="40" as="geometry" />
        </mxCell>
        <mxCell id="AuWu_W4zu13WxI6EuseF-4" value="" style="whiteSpace=wrap;html=1;fontSize=16;" vertex="1" parent="1">
          <mxGeometry x="840" y="270" width="250" height="100" as="geometry" />
        </mxCell>
        <mxCell id="AuWu_W4zu13WxI6EuseF-7" value="&lt;b&gt;pudu-base&lt;/b&gt;" style="text;html=1;align=center;verticalAlign=middle;resizable=0;points=[];autosize=1;strokeColor=none;fillColor=none;fontSize=18;" vertex="1" parent="1">
          <mxGeometry x="840" y="270" width="110" height="40" as="geometry" />
        </mxCell>
        <mxCell id="AuWu_W4zu13WxI6EuseF-8" value="&lt;b&gt;log&lt;/b&gt;" style="whiteSpace=wrap;html=1;fontSize=18;" vertex="1" parent="1">
          <mxGeometry x="850" y="320" width="90" height="40" as="geometry" />
        </mxCell>
        <mxCell id="AuWu_W4zu13WxI6EuseF-10" value="" style="whiteSpace=wrap;html=1;" vertex="1" parent="1">
          <mxGeometry x="840" y="530" width="260" height="240" as="geometry" />
        </mxCell>
        <mxCell id="AuWu_W4zu13WxI6EuseF-11" value="&lt;b&gt;Node Manager&lt;/b&gt;" style="text;html=1;align=center;verticalAlign=middle;resizable=0;points=[];autosize=1;strokeColor=none;fillColor=none;fontSize=17;" vertex="1" parent="1">
          <mxGeometry x="850" y="540" width="140" height="30" as="geometry" />
        </mxCell>
      </root>
    </mxGraphModel>
  </diagram>
</mxfile>
